<svg width="20" height="20" viewBox="0 0 20 20" fill="none" xmlns="http://www.w3.org/2000/svg">
<path d="M18.125 17.2411L13.405 12.5211C14.5392 11.1595 15.1048 9.41291 14.9842 7.64483C14.8635 5.87675 14.0658 4.22326 12.757 3.02834C11.4483 1.83341 9.72921 1.18906 7.95747 1.22932C6.18573 1.26958 4.49772 1.99134 3.24458 3.24448C1.99145 4.49761 1.26968 6.18562 1.22942 7.95736C1.18917 9.7291 1.83352 11.4482 3.02844 12.7569C4.22337 14.0657 5.87685 14.8634 7.64494 14.9841C9.41302 15.1047 11.1596 14.5391 12.5212 13.4049L17.2412 18.1249L18.125 17.2411ZM2.5 8.12489C2.5 7.01237 2.8299 5.92483 3.44798 4.99981C4.06606 4.07478 4.94457 3.35381 5.9724 2.92807C7.00024 2.50232 8.13124 2.39093 9.22238 2.60797C10.3135 2.82501 11.3158 3.36074 12.1025 4.14741C12.8891 4.93408 13.4249 5.93636 13.6419 7.02751C13.859 8.11865 13.7476 9.24965 13.3218 10.2775C12.8961 11.3053 12.1751 12.1838 11.2501 12.8019C10.3251 13.42 9.23752 13.7499 8.125 13.7499C6.63366 13.7482 5.20388 13.1551 4.14935 12.1005C3.09481 11.046 2.50165 9.61622 2.5 8.12489Z" fill="#666666"/>
</svg>
