<svg width="86" height="81" viewBox="0 0 86 81" fill="none" xmlns="http://www.w3.org/2000/svg">
<path d="M31.5857 30.5717C31.4402 29.9402 31.0848 29.3767 30.5777 28.9732C30.0707 28.5697 29.4417 28.35 28.7937 28.3501H7.95816C7.19835 28.3501 6.46965 28.6519 5.93238 29.1892C5.39511 29.7265 5.09328 30.4552 5.09328 31.215V77.5272C5.09328 78.287 5.39511 79.0157 5.93238 79.553C6.46965 80.0902 7.19835 80.3921 7.95816 80.3921H74.111C74.8708 80.3921 75.5995 80.0902 76.1368 79.553C76.6741 79.0157 76.9759 78.287 76.9759 77.5272V38.6246C76.9759 37.8648 76.6741 37.1361 76.1368 36.5988C75.5995 36.0616 74.8708 35.7597 74.111 35.7597H38.1046C36.5913 35.76 35.1227 35.2471 33.9386 34.3047C32.7546 33.3624 31.9251 32.0464 31.5857 30.5717Z" fill="#0B7285"/>
<path opacity="0.6" d="M31.5857 30.5717C31.4402 29.9402 31.0848 29.3767 30.5777 28.9732C30.0707 28.5697 29.4417 28.35 28.7937 28.3501H7.95816C7.19835 28.3501 6.46965 28.6519 5.93238 29.1892C5.39511 29.7265 5.09328 30.4552 5.09328 31.215V77.5272C5.09328 78.287 5.39511 79.0157 5.93238 79.553C6.46965 80.0902 7.19835 80.3921 7.95816 80.3921H74.111C74.8708 80.3921 75.5995 80.0902 76.1368 79.553C76.6741 79.0157 76.9759 78.287 76.9759 77.5272V38.6246C76.9759 37.8648 76.6741 37.1361 76.1368 36.5988C75.5995 36.0616 74.8708 35.7597 74.111 35.7597H38.1046C36.5913 35.76 35.1227 35.2471 33.9386 34.3047C32.7546 33.3624 31.9251 32.0464 31.5857 30.5717Z" fill="black"/>
<path opacity="0.22" d="M24.2332 16.1489L26.0901 22.1626C26.3272 22.928 26.8583 23.5679 27.5669 23.942C28.2754 24.3161 29.1035 24.3936 29.8692 24.1576L35.8802 22.3006L24.2332 16.1489Z" fill="#0B7285"/>
<path d="M24.2313 16.1489L2.7446 22.7877C2.3653 22.9042 2.01269 23.0943 1.70695 23.3473C1.40121 23.6002 1.14834 23.9109 0.962804 24.2617C0.777268 24.6124 0.662707 24.9963 0.625676 25.3914C0.588646 25.7865 0.629872 26.185 0.746996 26.5641L13.0139 66.2766C13.131 66.6558 13.3216 67.0082 13.5749 67.3137C13.8282 67.6192 14.1392 67.8717 14.4902 68.057C14.8411 68.2423 15.2251 68.3566 15.6202 68.3934C16.0153 68.4302 16.4138 68.3889 16.793 68.2716L44.2933 59.7759C44.6724 59.6591 45.0247 59.4688 45.3301 59.2157C45.6356 58.9627 45.8882 58.6519 46.0735 58.3012C46.2587 57.9505 46.3731 57.5667 46.4099 57.1717C46.4468 56.7768 46.4055 56.3785 46.2883 55.9995L35.8705 22.3006L24.2313 16.1489Z" fill="#0B7285"/>
<path opacity="0.8" d="M24.2313 16.1489L2.7446 22.7877C2.3653 22.9042 2.01269 23.0943 1.70695 23.3473C1.40121 23.6002 1.14834 23.9109 0.962804 24.2617C0.777268 24.6124 0.662707 24.9963 0.625676 25.3914C0.588646 25.7865 0.629872 26.185 0.746996 26.5641L13.0139 66.2766C13.131 66.6558 13.3216 67.0082 13.5749 67.3137C13.8282 67.6192 14.1392 67.8717 14.4902 68.057C14.8411 68.2423 15.2251 68.3566 15.6202 68.3934C16.0153 68.4302 16.4138 68.3889 16.793 68.2716L44.2933 59.7759C44.6724 59.6591 45.0247 59.4688 45.3301 59.2157C45.6356 58.9627 45.8882 58.6519 46.0735 58.3012C46.2587 57.9505 46.3731 57.5667 46.4099 57.1717C46.4468 56.7768 46.4055 56.3785 46.2883 55.9995L35.8705 22.3006L24.2313 16.1489Z" fill="white"/>
<g opacity="0.28">
<path d="M35.7931 58.044L17.9162 63.5654C17.5819 63.6681 17.2205 63.6343 16.9111 63.4713C16.6017 63.3082 16.3694 63.0294 16.265 62.6956C16.1632 62.3612 16.1978 62.0002 16.3613 61.6914C16.5248 61.3825 16.8038 61.1508 17.1375 61.0469L35.0144 55.5229C35.3491 55.4204 35.7107 55.4546 36.0202 55.6181C36.3297 55.7816 36.5618 56.0611 36.6656 56.3954C36.7674 56.7297 36.7328 57.0907 36.5693 57.3996C36.4058 57.7085 36.1268 57.9402 35.7931 58.044Z" fill="#0B7285"/>
</g>
<g opacity="0.28">
<path d="M16.552 25.6352L7.09791 28.5548C6.76359 28.6568 6.40252 28.6226 6.09329 28.4597C5.78405 28.2968 5.55166 28.0183 5.4467 27.6849C5.34484 27.3503 5.37938 26.9889 5.54282 26.6796C5.70625 26.3703 5.98531 26.1381 6.31918 26.0337L15.7733 23.1141C16.1076 23.0107 16.4693 23.0443 16.7789 23.2074C17.0885 23.3705 17.3207 23.6498 17.4245 23.984C17.5264 24.3187 17.4918 24.68 17.3284 24.9893C17.165 25.2986 16.8859 25.5308 16.552 25.6352Z" fill="#0B7285"/>
</g>
<g opacity="0.28">
<path d="M24.2729 28.7327L8.64624 33.5588C8.31261 33.659 7.95293 33.6236 7.64526 33.4602C7.33758 33.2969 7.10674 33.0188 7.00283 32.6863C6.90023 32.3523 6.93416 31.9913 7.09721 31.6823C7.26025 31.3733 7.53911 31.1415 7.87272 31.0377L23.4994 26.2116C23.8337 26.1089 24.1951 26.1428 24.5045 26.3058C24.8139 26.4688 25.0462 26.7477 25.1506 27.0815C25.2515 27.4169 25.2159 27.7785 25.0515 28.0877C24.8872 28.397 24.6073 28.6288 24.2729 28.7327Z" fill="#0B7285"/>
</g>
<g opacity="0.28">
<path d="M32.992 31.522L10.1875 38.554C9.85351 38.6566 9.49248 38.6227 9.18348 38.4597C8.87447 38.2966 8.64268 38.0178 8.53887 37.6842C8.4369 37.3498 8.47109 36.9888 8.634 36.6795C8.79692 36.3703 9.07536 36.1379 9.40876 36.0329L32.2133 29.0009C32.5472 28.8991 32.9079 28.9333 33.2168 29.0963C33.5256 29.2592 33.7575 29.5376 33.8619 29.8708C33.9645 30.2052 33.9307 30.5665 33.7677 30.876C33.6047 31.1854 33.3258 31.4177 32.992 31.522Z" fill="#0B7285"/>
</g>
<g opacity="0.28">
<path d="M34.534 36.5198L21.2774 40.6166C20.9431 40.7184 20.5821 40.6837 20.2732 40.5203C19.9643 40.3568 19.7327 40.0778 19.6288 39.7441C19.5269 39.4101 19.5612 39.0494 19.7241 38.7406C19.8871 38.4318 20.1655 38.1999 20.4987 38.0955L33.7553 33.9987C34.09 33.8976 34.451 33.9324 34.7601 34.0958C35.0692 34.2591 35.3015 34.5377 35.4065 34.8712C35.5083 35.2055 35.4737 35.5665 35.3102 35.8754C35.1467 36.1843 34.8677 36.4159 34.534 36.5198Z" fill="#0B7285"/>
</g>
<g opacity="0.28">
<path d="M15.203 42.4977L11.7365 43.5681C11.4022 43.6708 11.0408 43.637 10.7314 43.474C10.4219 43.3109 10.1897 43.0321 10.0853 42.6983C9.9827 42.3636 10.0169 42.0019 10.1805 41.6924C10.344 41.3829 10.6235 41.1509 10.9578 41.047L14.4243 39.9766C14.7586 39.8746 15.1197 39.9088 15.4289 40.0717C15.7381 40.2347 15.9705 40.5131 16.0755 40.8465C16.1766 41.1812 16.1418 41.5422 15.9784 41.8513C15.8151 42.1604 15.5365 42.3927 15.203 42.4977Z" fill="#0B7285"/>
</g>
<g opacity="0.28">
<path d="M36.0845 41.5255L13.28 48.5705C12.9457 48.6723 12.5847 48.6376 12.2758 48.4742C11.9669 48.3107 11.7353 48.0317 11.6314 47.698C11.5288 47.364 11.5627 47.003 11.7258 46.694C11.8888 46.385 12.1677 46.1532 12.5013 46.0494L35.3058 39.0044C35.6398 38.9025 36.0005 38.9367 36.3093 39.0997C36.6181 39.2626 36.85 39.5411 36.9544 39.8742C37.0571 40.2086 37.0232 40.5699 36.8602 40.8794C36.6972 41.1888 36.4183 41.4211 36.0845 41.5255Z" fill="#0B7285"/>
</g>
<g opacity="0.28">
<path d="M28.8296 49.246L14.8255 53.572C14.4915 53.6739 14.1308 53.6396 13.822 53.4767C13.5131 53.3137 13.2813 53.0353 13.1768 52.7021C13.0749 52.3678 13.1091 52.0067 13.272 51.6975C13.4349 51.3883 13.7133 51.1559 14.0467 51.0509L28.0508 46.7249C28.3855 46.6231 28.7468 46.6576 29.0561 46.821C29.3654 46.9845 29.5976 47.2635 29.702 47.5974C29.8045 47.9317 29.7702 48.2931 29.6067 48.6021C29.4431 48.9112 29.1636 49.1428 28.8296 49.246Z" fill="#0B7285"/>
</g>
<g opacity="0.28">
<path d="M37.6285 46.5251L33.8911 47.6789C33.5564 47.7808 33.1951 47.7462 32.8858 47.5828C32.5765 47.4193 32.3443 47.1403 32.2399 46.8064C32.1381 46.4721 32.1727 46.1111 32.3362 45.8022C32.4996 45.4933 32.7787 45.2617 33.1124 45.1578L36.8497 44.004C37.1837 43.9014 37.5447 43.9354 37.8537 44.0984C38.1627 44.2614 38.3945 44.5403 38.4983 44.8739C38.601 45.2082 38.5672 45.5696 38.4042 45.879C38.2411 46.1885 37.9623 46.4208 37.6285 46.5251Z" fill="#0B7285"/>
</g>
<g opacity="0.28">
<path d="M39.1702 51.5358L16.3709 58.5678C16.0362 58.6703 15.6745 58.6361 15.365 58.4726C15.0556 58.309 14.8235 58.0295 14.7196 57.6953C14.6171 57.3609 14.6514 56.9996 14.815 56.6906C14.9786 56.3815 15.2581 56.1499 15.5921 56.0467L38.394 49.0016C38.7287 48.9005 39.0897 48.9354 39.3989 49.0987C39.708 49.262 39.9402 49.5406 40.0452 49.8741C40.0976 50.0407 40.1164 50.2159 40.1007 50.3898C40.085 50.5636 40.035 50.7327 39.9536 50.8871C39.8723 51.0416 39.7612 51.1784 39.6267 51.2897C39.4922 51.4011 39.3371 51.4847 39.1702 51.5358Z" fill="#0B7285"/>
</g>
<path d="M39.6628 1.21651L46.4812 16.4108C46.6582 16.8075 46.671 17.258 46.5168 17.6641C46.3626 18.0701 46.0539 18.3986 45.6582 18.5777L16.7333 31.5609C16.3367 31.7386 15.8859 31.7518 15.4796 31.5975C15.0734 31.4432 14.7449 31.134 14.5664 30.7379L7.74533 15.5436C7.56679 15.1467 7.5532 14.6952 7.70754 14.2884C7.86188 13.8815 8.17152 13.5526 8.56834 13.374L37.4933 0.390902C37.8906 0.213954 38.3418 0.201465 38.7483 0.356164C39.1549 0.510864 39.4836 0.820173 39.6628 1.21651Z" fill="#0B7285"/>
<path opacity="0.3" d="M39.6628 1.21651L46.4812 16.4108C46.6582 16.8075 46.671 17.258 46.5168 17.6641C46.3626 18.0701 46.0539 18.3986 45.6582 18.5777L16.7333 31.5609C16.3367 31.7386 15.8859 31.7518 15.4796 31.5975C15.0734 31.4432 14.7449 31.134 14.5664 30.7379L7.74533 15.5436C7.56679 15.1467 7.5532 14.6952 7.70754 14.2884C7.86188 13.8815 8.17152 13.5526 8.56834 13.374L37.4933 0.390902C37.8906 0.213954 38.3418 0.201465 38.7483 0.356164C39.1549 0.510864 39.4836 0.820173 39.6628 1.21651Z" fill="black"/>
<path d="M35.1057 0.466688L34.1813 0.881348L34.2879 1.11898L35.2123 0.704319L35.1057 0.466688Z" fill="#0B7285"/>
<path d="M32.8872 1.46333L30.0047 2.75635L30.1113 2.99398L32.9938 1.70097L32.8872 1.46333Z" fill="#0B7285"/>
<path d="M7.72335 17.0784L7.48576 17.1851L8.27518 18.9433L8.51278 18.8366L7.72335 17.0784Z" fill="#0B7285"/>
<path opacity="0.6" d="M38.6966 0.336781L31.2375 14.9477C30.5454 16.3019 29.4119 17.3795 28.0243 18.0022C26.6368 18.6249 25.0783 18.7556 23.6065 18.3725L7.73241 14.2341C7.89525 13.8532 8.19428 13.5468 8.57104 13.3746L37.496 0.391474C37.8749 0.222043 38.3039 0.2025 38.6966 0.336781Z" fill="#0B7285"/>
<path d="M48.9446 19.0352L26.4995 20.4207C26.103 20.4443 25.715 20.5458 25.3578 20.7195C25.0005 20.8932 24.6811 21.1356 24.4176 21.433C24.1542 21.7303 23.9519 22.0766 23.8225 22.4522C23.6931 22.8277 23.639 23.2251 23.6633 23.6216L26.2235 65.1051C26.2474 65.5019 26.3493 65.8901 26.5235 66.2474C26.6976 66.6047 26.9406 66.9241 27.2384 67.1873C27.5363 67.4506 27.8831 67.6524 28.2591 67.7814C28.6351 67.9103 29.0328 67.9638 29.4295 67.9388L58.1565 66.1651C58.5526 66.1413 58.9401 66.0395 59.2968 65.8656C59.6535 65.6917 59.9723 65.4491 60.2351 65.1517C60.4978 64.8544 60.6993 64.5081 60.828 64.1327C60.9567 63.7574 61.01 63.3603 60.985 62.9643L58.8233 27.76L48.9446 19.0352Z" fill="#0B7285"/>
<path opacity="0.8" d="M48.9446 19.0352L26.4995 20.4207C26.103 20.4443 25.715 20.5458 25.3578 20.7195C25.0005 20.8932 24.6811 21.1356 24.4176 21.433C24.1542 21.7303 23.9519 22.0766 23.8225 22.4522C23.6931 22.8277 23.639 23.2251 23.6633 23.6216L26.2235 65.1051C26.2474 65.5019 26.3493 65.8901 26.5235 66.2474C26.6976 66.6047 26.9406 66.9241 27.2384 67.1873C27.5363 67.4506 27.8831 67.6524 28.2591 67.7814C28.6351 67.9103 29.0328 67.9638 29.4295 67.9388L58.1565 66.1651C58.5526 66.1413 58.9401 66.0395 59.2968 65.8656C59.6535 65.6917 59.9723 65.4491 60.2351 65.1517C60.4978 64.8544 60.6993 64.5081 60.828 64.1327C60.9567 63.7574 61.01 63.3603 60.985 62.9643L58.8233 27.76L48.9446 19.0352Z" fill="white"/>
<g opacity="0.22">
<path d="M50.3008 62.4723L31.6244 63.6261C31.2755 63.6461 30.9328 63.5272 30.6713 63.2954C30.4097 63.0636 30.2505 62.7378 30.2284 62.389C30.2084 62.0402 30.3268 61.6977 30.558 61.4358C30.7892 61.1739 31.1144 61.0138 31.4629 60.9904L50.1394 59.8392C50.4883 59.8185 50.8312 59.9367 51.0932 60.1681C51.3553 60.3994 51.5152 60.725 51.5379 61.0737C51.5586 61.4231 51.44 61.7664 51.2082 62.0285C50.9763 62.2906 50.6501 62.4502 50.3008 62.4723Z" fill="#0B7285"/>
</g>
<g opacity="0.22">
<path d="M39.2531 26.4429L29.3744 27.0471C29.0257 27.0671 28.6831 26.9486 28.4212 26.7175C28.1593 26.4863 27.9993 26.1611 27.9758 25.8126C27.9558 25.4634 28.0746 25.1205 28.3064 24.8585C28.5381 24.5966 28.8639 24.4368 29.2129 24.414L39.0916 23.8046C39.4402 23.7839 39.7829 23.9022 40.0445 24.1335C40.3061 24.3649 40.4654 24.6905 40.4876 25.0391C40.5097 25.3889 40.3921 25.7331 40.1607 25.9963C39.9292 26.2595 39.6028 26.4201 39.2531 26.4429Z" fill="#0B7285"/>
</g>
<g opacity="0.22">
<path d="M46.0176 31.2733L29.6955 32.2786C29.3464 32.3 29.0031 32.182 28.7409 31.9506C28.4787 31.7191 28.319 31.3931 28.2969 31.0441C28.2763 30.6947 28.3948 30.3514 28.6267 30.0893C28.8585 29.8272 29.1848 29.6676 29.534 29.6455L45.8535 28.6402C46.2026 28.6188 46.5459 28.7367 46.8081 28.9682C47.0703 29.1996 47.23 29.5256 47.2521 29.8747C47.2728 30.2236 47.1545 30.5665 46.9232 30.8286C46.6919 31.0906 46.3663 31.2505 46.0176 31.2733Z" fill="#0B7285"/>
</g>
<g opacity="0.22">
<path d="M53.8419 36.0368L30.0217 37.5057C29.6716 37.5271 29.3274 37.4089 29.0643 37.1771C28.8012 36.9452 28.6406 36.6185 28.6179 36.2686C28.5972 35.9199 28.7155 35.5773 28.9469 35.3157C29.1782 35.054 29.5038 34.8947 29.8524 34.8726L53.6752 33.4011C54.0241 33.3811 54.3667 33.5 54.6283 33.7318C54.8898 33.9636 55.0491 34.2894 55.0712 34.6382C55.0919 34.9863 54.9744 35.3285 54.7442 35.5904C54.514 35.8523 54.1898 36.0127 53.8419 36.0368Z" fill="#0B7285"/>
</g>
<g opacity="0.22">
<path d="M54.1585 41.2615L40.3107 42.1158C39.9618 42.1365 39.6189 42.0183 39.3568 41.787C39.0948 41.5557 38.9349 41.2301 38.9121 40.8813C38.8907 40.5322 39.0087 40.1889 39.2401 39.9267C39.4716 39.6645 39.7976 39.5048 40.1466 39.4827L53.9945 38.6285C54.3435 38.6071 54.6868 38.725 54.9491 38.9565C55.2113 39.1879 55.3709 39.5139 55.393 39.863C55.4137 40.2119 55.2955 40.5548 55.0642 40.8168C54.8329 41.0789 54.5073 41.2388 54.1585 41.2615Z" fill="#0B7285"/>
</g>
<g opacity="0.22">
<path d="M33.9635 42.5108L30.3407 42.7347C29.9921 42.7554 29.6494 42.6371 29.3878 42.4057C29.1262 42.1744 28.9669 41.8488 28.9447 41.5002C28.924 41.1513 29.0423 40.8084 29.2736 40.5463C29.5049 40.2843 29.8305 40.1244 30.1792 40.1016L33.802 39.8777C34.1512 39.8577 34.4941 39.9765 34.7561 40.2082C35.018 40.4399 35.1778 40.7658 35.2006 41.1148C35.2206 41.4637 35.1017 41.8063 34.8699 42.0678C34.6381 42.3294 34.3123 42.4886 33.9635 42.5108Z" fill="#0B7285"/>
</g>
<g opacity="0.22">
<path d="M54.4869 46.4919L30.6641 47.9608C30.3152 47.9815 29.9723 47.8632 29.7102 47.6319C29.4482 47.4006 29.2883 47.075 29.2655 46.7263C29.2455 46.3771 29.3643 46.0342 29.5961 45.7722C29.8278 45.5102 30.1536 45.3505 30.5026 45.3277L54.3229 43.8588C54.6722 43.8381 55.0155 43.9566 55.2776 44.1885C55.5397 44.4204 55.6993 44.7466 55.7214 45.0959C55.7421 45.4445 55.6238 45.7872 55.3925 46.0488C55.1611 46.3104 54.8355 46.4697 54.4869 46.4919Z" fill="#0B7285"/>
</g>
<g opacity="0.22">
<path d="M45.6142 52.2808L30.9851 53.1845C30.6359 53.2045 30.293 53.0857 30.031 52.854C29.7691 52.6222 29.6093 52.2964 29.5865 51.9474C29.5665 51.5985 29.6854 51.2559 29.9172 50.9943C30.149 50.7328 30.4748 50.5735 30.8236 50.5514L45.4527 49.6477C45.8016 49.6277 46.1443 49.7466 46.4058 49.9784C46.6674 50.2102 46.8266 50.536 46.8487 50.8848C46.8701 51.2336 46.7521 51.5766 46.5205 51.8384C46.289 52.1002 45.963 52.2593 45.6142 52.2808Z" fill="#0B7285"/>
</g>
<g opacity="0.22">
<path d="M54.8016 51.7132L50.8949 51.9528C50.5463 51.9735 50.2036 51.8552 49.942 51.6238C49.6804 51.3925 49.5211 51.0669 49.499 50.7183C49.4776 50.3692 49.5955 50.0259 49.827 49.7637C50.0584 49.5015 50.3844 49.3418 50.7335 49.3197L54.6401 49.0801C54.9892 49.0587 55.3325 49.1767 55.5947 49.4081C55.8569 49.6396 56.0166 49.9656 56.0387 50.3146C56.0587 50.6638 55.9399 51.0067 55.7082 51.2687C55.4764 51.5306 55.1506 51.6904 54.8016 51.7132Z" fill="#0B7285"/>
</g>
<g opacity="0.22">
<path d="M55.1264 56.9396L31.3062 58.4085C30.9573 58.4292 30.6143 58.311 30.3523 58.0797C30.0902 57.8484 29.9304 57.5228 29.9076 57.174C29.8869 56.8251 30.0051 56.4822 30.2364 56.2201C30.4677 55.9581 30.7933 55.7982 31.1421 55.7754L54.9649 54.3065C55.3136 54.2858 55.6562 54.4041 55.9179 54.6355C56.1795 54.8669 56.3388 55.1925 56.3609 55.541C56.3823 55.8901 56.2643 56.2334 56.0329 56.4956C55.8015 56.7578 55.4754 56.9175 55.1264 56.9396Z" fill="#0B7285"/>
</g>
<path opacity="0.22" d="M48.9473 19.0352L49.3353 25.3171C49.3596 25.7132 49.4616 26.1006 49.6356 26.4572C49.8095 26.8139 50.0521 27.1328 50.3493 27.3956C50.6466 27.6585 50.9927 27.8603 51.3679 27.9894C51.7431 28.1185 52.1401 28.1724 52.5362 28.1481L58.8259 27.76L48.9473 19.0352Z" fill="#0B7285"/>
<path opacity="0.5" d="M41.5947 34.7088C41.5908 34.4078 41.5265 34.1106 41.4058 33.8348C41.2851 33.559 41.1103 33.3102 40.8918 33.1031C40.6733 32.896 40.4154 32.7348 40.1336 32.629C39.8517 32.5232 39.5515 32.475 39.2507 32.4872H18.3891C16.8082 32.4872 15.2638 33.7712 14.9669 35.3521L6.73422 77.531C6.4269 79.1119 7.45825 80.3959 9.03915 80.3959H75.192C76.7729 80.3959 78.3043 79.1145 78.6142 77.531L85.404 42.7617C85.7113 41.1782 84.68 39.8968 83.0991 39.8968H47.1031C43.9777 39.8968 41.7015 37.7456 41.5947 34.7088Z" fill="#0B7285"/>
</svg>
