<svg width="14" height="14" viewBox="0 0 14 14" fill="none" xmlns="http://www.w3.org/2000/svg">
<g clip-path="url(#clip0_746_51998)">
<path fill-rule="evenodd" clip-rule="evenodd" d="M3.57667 12.3073L6.14073 10.7532C6.66842 10.4334 7.33014 10.4334 7.85787 10.7531L10.4234 12.3077L9.74396 9.39592C9.60457 8.79855 9.80669 8.17305 10.2693 7.7702L12.5289 5.80243L9.55308 5.54973C8.94172 5.49781 8.40913 5.11225 8.16891 4.54767L7 1.80038L5.83109 4.54766C5.59087 5.11224 5.05828 5.49781 4.44692 5.54973L1.47112 5.80243L3.73072 7.7702C4.19331 8.17305 4.39543 8.79855 4.25604 9.39592L3.57667 12.3073ZM6.65592 11.6032C6.867 11.4753 7.13169 11.4753 7.34278 11.6032L10.5815 13.5657C11.0833 13.8698 11.7036 13.4198 11.5702 12.8484L10.7119 9.17005C10.6562 8.9311 10.737 8.68091 10.922 8.51977L13.7716 6.03821C14.213 5.65382 13.9757 4.92777 13.3925 4.87825L9.63718 4.55935C9.39264 4.53858 9.1796 4.38435 9.08351 4.15852L7.60974 0.694707C7.381 0.157104 6.619 0.157103 6.39027 0.694706L4.91649 4.15852C4.8204 4.38435 4.60736 4.53858 4.36282 4.55935L0.607486 4.87825C0.0242753 4.92777 -0.213013 5.65382 0.228384 6.03821L3.07797 8.51977C3.263 8.68091 3.34385 8.9311 3.28809 9.17005L2.42982 12.8482C2.29649 13.4196 2.9168 13.8695 3.41858 13.5654L6.65592 11.6032Z" fill="#FFC500"/>
<mask id="mask0_746_51998" style="mask-type:alpha" maskUnits="userSpaceOnUse" x="0" y="0" width="14" height="14">
<path d="M7.34278 11.6032C7.13169 11.4753 6.867 11.4753 6.65592 11.6032L3.41858 13.5654C2.9168 13.8695 2.29649 13.4196 2.42982 12.8482L3.28809 9.17005C3.34385 8.9311 3.263 8.68091 3.07797 8.51977L0.228384 6.03821C-0.213013 5.65382 0.0242753 4.92777 0.607486 4.87825L4.36282 4.55935C4.60736 4.53858 4.8204 4.38435 4.91649 4.15852L6.39027 0.694706C6.619 0.157103 7.381 0.157103 7.60974 0.694707L9.08351 4.15852C9.1796 4.38435 9.39264 4.53858 9.63718 4.55935L13.3925 4.87825C13.9757 4.92777 14.213 5.65382 13.7716 6.03821L10.922 8.51977C10.737 8.68091 10.6562 8.9311 10.7119 9.17005L11.5702 12.8484C11.7036 13.4198 11.0833 13.8698 10.5815 13.5657L7.34278 11.6032Z" fill="#FFC500"/>
</mask>
<g mask="url(#mask0_746_51998)">
<rect y="-2.33643" width="9.75149" height="18.6261" fill="#FFC500"/>
</g>
</g>
<defs>
<clipPath id="clip0_746_51998">
<rect width="14" height="13.4167" fill="white" transform="translate(0 0.291504)"/>
</clipPath>
</defs>
</svg>
