<svg width="32" height="33" viewBox="0 0 32 33" fill="none" xmlns="http://www.w3.org/2000/svg">
<g clip-path="url(#clip0_723_1743)">
<g clip-path="url(#clip1_723_1743)">
<path fill-rule="evenodd" clip-rule="evenodd" d="M26.6666 9.79329C26.6666 10.5297 26.0697 11.1266 25.3333 11.1266H6.66665C5.93027 11.1266 5.33331 10.5297 5.33331 9.79329C5.33331 9.05691 5.93027 8.45996 6.66665 8.45996H25.3333C26.0697 8.45996 26.6666 9.05691 26.6666 9.79329ZM26.6666 16.46C26.6666 17.1963 26.0697 17.7933 25.3333 17.7933H6.66665C5.93027 17.7933 5.33331 17.1963 5.33331 16.46C5.33331 15.7236 5.93027 15.1266 6.66665 15.1266H25.3333C26.0697 15.1266 26.6666 15.7236 26.6666 16.46ZM26.6666 23.1266C26.6666 23.863 26.0697 24.46 25.3333 24.46H6.66665C5.93027 24.46 5.33331 23.863 5.33331 23.1266C5.33331 22.3902 5.93027 21.7933 6.66665 21.7933H25.3333C26.0697 21.7933 26.6666 22.3902 26.6666 23.1266Z" fill="#2D2926"/>
</g>
</g>
<defs>
<clipPath id="clip0_723_1743">
<rect width="21.3333" height="16" fill="white" transform="translate(5.33331 8.45996)"/>
</clipPath>
<clipPath id="clip1_723_1743">
<rect width="21.3333" height="16" fill="white" transform="translate(5.33331 8.45996)"/>
</clipPath>
</defs>
</svg>
